# xmcd
#
# Track frame offsets:
#  150
#  12056
#  34256
#  48285
#  61963
#  82863
#  103480
#  127883
#  137909
#  159721
#  181446
#  194961
#  217079
#
# Disc length: 3288 seconds
#
# Revision: 1
# Processed by: cddbd v1.5.1PL0 Copyright (c) Steve Scherf et al.
# Submitted via: Collectorz.com_Music_Collector 6.9
#
DISCID=be0cd60d
DTITLE=Gary Kendall - Dusty and Pearl
DYEAR=2004
DGENRE=Blues
TTITLE0=We'll Be Alright
TTITLE1=Worn In
TTITLE2=Spread The Love
TTITLE3=All Dressed Up
TTITLE4=Don't Be Sad
TTITLE5=Sumkinda Sumthin
TTITLE6=Bluesona Slonite
TTITLE7=Savin' It Up For You
TTITLE8=Lucky At Love
TTITLE9=Night Creeper
TTITLE10=You Can't Be Lucky All The Time
TTITLE11=Grindin' Bump
TTITLE12=Thanks A Lot
EXTD=
EXTT0=
EXTT1=
EXTT2=
EXTT3=
EXTT4=
EXTT5=
EXTT6=
EXTT7=
EXTT8=
EXTT9=
EXTT10=
EXTT11=
EXTT12=
PLAYORDER=
